<?xml version="1.0" encoding="utf-8"?>
<!-- Generator: Adobe Illustrator 15.0.0, SVG Export Plug-In . SVG Version: 6.00 Build 0)  -->
<!DOCTYPE svg PUBLIC "-//W3C//DTD SVG 1.1//EN" "http://www.w3.org/Graphics/SVG/1.1/DTD/svg11.dtd">
<svg version="1.1" id="Layer_1" xmlns="http://www.w3.org/2000/svg" xmlns:xlink="http://www.w3.org/1999/xlink" x="0px" y="0px"
	 width="64px" height="64px" viewBox="0 0 64 64" enable-background="new 0 0 64 64" xml:space="preserve">
<g>
	<path fill="#231F20" d="M18.405,31.416l0.205-0.192l0.206,0.192c1.802,1.697,3.8,2.632,5.617,2.632c1.909,0,3.88-0.829,5.701-2.398
		l0.152-0.129l0.4,0.195c0.339,0.309,0.947,0.753,1.221,0.886l0.375,0.183l-0.041,0.04l0.144,0.087c0.344,0.203,0.711,0.4,1.13,0.61
		c0.422,0.187,0.786,0.328,1.172,0.455c0.074,0.026,1.872,0.607,3.923,1.557l0.366,0.112c1.948,0.742,2.771,1.788,2.801,1.824
		c3.023,4.487,3.532,14.286,3.581,15.381c-0.022,1.531-0.457,1.929-0.573,2.005c-6.775,3.033-17.013,3.821-18.994,3.946
		l-0.054,0.003l-0.058-0.015c-0.066-0.021-0.135-0.031-0.219-0.031h-0.001l-0.07,0.003c-0.541,0.038-0.99,0.056-1.408,0.056h-0.328
		c-1.234-0.074-12.272-0.797-19.336-3.94c-0.143-0.06-0.562-0.542-0.591-1.948c0.001-0.105,0.365-10.682,3.537-15.396
		c0.155-0.194,1.019-1.199,2.743-1.858c1.516-0.466,5.265-1.71,7.316-3.194c0.086-0.053,0.172-0.141,0.263-0.233
		C17.734,32.086,18.046,31.751,18.405,31.416z M39.518,34.062l-0.28-0.081c-0.459-0.213-0.944-0.424-1.443-0.628
		c0.705-0.33,1.282-0.654,1.712-0.967c0.07-0.04,0.139-0.11,0.204-0.178c0.155-0.166,0.363-0.39,0.607-0.618l0.131-0.12l0.126,0.123
		c1.35,1.267,2.839,1.962,4.196,1.962c1.428,0,2.901-0.618,4.256-1.788l0.097-0.08l0.273,0.132c0.25,0.231,0.704,0.56,0.907,0.661
		l0.235,0.113l-0.028,0.029l0.148,0.087c0.259,0.153,0.534,0.301,0.843,0.452c0.316,0.142,0.588,0.248,0.873,0.343
		c0.055,0.018,1.382,0.444,2.913,1.153l0.271,0.084c1.396,0.533,2.002,1.266,2.062,1.343c2.256,3.345,2.619,10.593,2.653,11.4
		c-0.017,1.12-0.327,1.408-0.406,1.458c-4.243,1.9-10.336,2.612-12.899,2.839c-0.231-3.327-1.052-11.162-3.794-15.238l-0.116-0.14
		C42.504,35.714,41.287,34.739,39.518,34.062z M37.93,21.953l0.048-0.057c0.215-0.157,0.32-0.4,0.279-0.651
		c-0.51-3.062-0.179-4.346-0.064-4.668c0.888-2.727,3.685-3.998,4.233-4.223c0.111-0.042,0.323-0.106,0.55-0.144l0.068-0.017
		l0.422-0.022l0.004,0.029l0.127-0.011c0.096-0.008,0.187-0.022,0.251-0.036l0.142-0.032c0.09,0.003,1.194,0.145,2.794,0.635
		l1.128,0.388c2.048,0.605,2.997,1.735,3.173,1.964c1.646,1.869,1.206,4.679,0.794,6.19c-0.046,0.187-0.018,0.377,0.089,0.532
		l0.091,0.117c0.116,0.155,0.221,0.772-0.136,2.103c-0.066,0.403-0.217,0.727-0.432,0.942c-0.087,0.091-0.145,0.209-0.166,0.346
		c-0.556,3.262-3.478,6.909-6.554,6.909c-2.615,0-5.595-3.356-6.131-6.909c-0.022-0.136-0.079-0.254-0.175-0.362
		c-0.218-0.226-0.359-0.556-0.446-1.054C37.76,22.999,37.732,22.253,37.93,21.953z M15.188,18.437l0.071-0.082
		c0.275-0.199,0.408-0.512,0.358-0.833c-0.69-4.149-0.24-5.875-0.084-6.308c1.2-3.686,4.983-5.408,5.727-5.714
		c0.155-0.06,0.444-0.147,0.749-0.196l0.082-0.019l0.624-0.035l0.002,0.04l0.134-0.014c0.125-0.012,0.246-0.03,0.389-0.059
		l0.142-0.034c0.116,0.001,1.576,0.185,3.779,0.859l1.516,0.521c2.769,0.819,4.059,2.352,4.295,2.657
		c2.226,2.528,1.633,6.332,1.08,8.375c-0.063,0.235-0.025,0.481,0.107,0.681l0.124,0.158c0.203,0.272,0.279,1.182-0.174,2.867
		c-0.092,0.55-0.296,0.996-0.596,1.292c-0.108,0.117-0.18,0.27-0.211,0.441c-0.753,4.411-4.707,9.344-8.87,9.344
		c-3.539,0-7.574-4.539-8.302-9.341c-0.024-0.171-0.095-0.328-0.221-0.463c-0.302-0.313-0.496-0.765-0.614-1.436
		C14.945,19.875,14.91,18.859,15.188,18.437z"/>
</g>
</svg>
